@startuml sisDeCobrança
  package Sistema_de_Cobranças <<rectangle>> {

    class Cliente {
      - id: Int
      # nome: String
      # cobranças: List<Cobrança>
    }

    class Cobrança {
      - id: Int
      # cliente: Client
      + consultaBoleto(): Boolean
    }

    Cliente "1" --o "0..*" Cobrança

    class Boleto {
      - id: Int
      # validade: Dat
      # valor: Float
      + gerarBoleto()
    }

    Cobrança "1" *-- "1" Boleto
  }
@enduml