@startuml sisDeCobrança
  package Sistema_de_Cobranças <<rectangle>> {

    class Cliente {
      - id: Int
      # nome: String
      # cobranças: List<Cobrança>
      + fazerPagamento()
    }

    class Cobrança {
      - id: Int
      # cliente: Client
      # quitada: Boolean
      + gerarBoleto()
      + consultaBoleto(): Boolean
    }

    class Boleto {
      - id: Int
      # validade: Date
      # valor: Float
      # quitado: Boolean
      + foiQuitado(): Boolean
      + setQuitado(Boolean: foiQuitado)
    }

    interface PagarBoleto <<interface>> {
      + fazerPagamento()
    }

    abstract class InformaçãoDoBoleto <<abstract>> {
      + informaStatusDoBoleto()
    }

    interface FazerCobrança <<interface>> {
      + gerarBoleto()
      + consultaBoleto(): Boolean
    }

    Cliente "1" --o "0..*" Cobrança: < possue 
    Cobrança "1" *-- "1" Boleto: < tem
    Boleto <|-- InformaçãoDoBoleto
    PagarBoleto <|-- InformaçãoDoBoleto
    Cliente ..|> PagarBoleto: realização
    Cobrança ..|> FazerCobrança: realização
    FazerCobrança ..|> InformaçãoDoBoleto: realização
  }
@enduml